<svg xmlns="http://www.w3.org/2000/svg" viewBox="10 0 100 100">
  <circle cx="50" cy="50" r="40" fill="#4285F4"/>
  <path d="M50 30c-7.7 0-14 6.3-14 14s6.3 14 14 14 14-6.3 14-14-6.3-14-14-14zm0 24c-6.6 0-12-5.4-12-12s5.4-12 12-12 12 5.4 12 12-5.4 12-12 12z" fill="#FFF"/>
  <circle cx="80" cy="20" r="12" fill="#FFD700"/>
  <path d="M80 40c-6.6 0-12-5.4-12-12s5.4-12 12-12 12 5.4 12 12-5.4 12-12 12z" fill="#FFF"/>
  <path d="M80 30a6 6 0 1 0 .002 11.999A6 6 0 0 0 80 30zM80 16c-4.4 0-8 3.6-8 8s3.6 8 8 8 8-3.6 8-8-3.6-8-8-8z" fill="#FFF"/>
</svg>
